<?xml version="1.0" encoding="iso-8859-1"?>
<!-- Generator: Adobe Illustrator 19.0.0, SVG Export Plug-In . SVG Version: 6.00 Build 0)  -->
<svg version="1.1" id="Layer_1" xmlns="http://www.w3.org/2000/svg" xmlns:xlink="http://www.w3.org/1999/xlink" x="0px" y="0px"
	 viewBox="0 0 196.119 196.119" style="enable-background:new 0 0 196.119 196.119;" xml:space="preserve">
<g>
	<g>
		<path d="M160.334,76.701c-1.882-25.887-24.296-46.392-51.577-46.392c-21.644,0-40.714,12.797-48.321,32.12
			c-0.531-0.019-1.064-0.028-1.6-0.028c-24.578,0-44.573,19.995-44.573,44.573c0,0.747,0.156,2.745,0.323,4.497
			C5.875,116.551,0,125.905,0,136.614c0,16.375,13.833,29.655,30.346,29.183c0.096,0.009,0.193,0.012,0.291,0.012h63.166
			c0.221,0,0.439-0.021,0.651-0.061c9.305-0.648,17.116-6.305,20.85-14.207l45.328-0.046c19.899-1.024,35.487-17.448,35.487-37.39
			C196.119,94.014,180.215,77.569,160.334,76.701z M93.613,158.655c-0.089,0.004-0.176,0.012-0.261,0.022H31.06
			c-0.185-0.019-0.373-0.022-0.564-0.021c-0.327,0.014-0.656,0.021-0.987,0.021c-12.339,0-22.377-9.898-22.377-22.063
			c0-12.165,10.037-22.063,22.377-22.063c0.745,0,1.483,0.037,2.211,0.106c1.656,0.164,3.199-0.843,3.726-2.418
			c3.548-10.614,13.856-17.746,25.647-17.746c14.826,0,26.888,11.397,26.888,25.436c0,0.977,0.4,1.912,1.109,2.586
			c0.71,0.674,1.67,1.047,2.639,0.975c0.313-0.016,0.629-0.024,0.945-0.024c9.851,0,17.866,7.898,17.866,17.606
			C110.54,150.447,103.105,158.171,93.613,158.655z M160.446,144.369l-43.027,0.039c0.149-1.094,0.253-2.203,0.253-3.337
			c0-12.891-10.017-23.51-22.751-24.639c-1.814-16.317-16.293-29.071-33.828-29.071c-13.905,0-26.202,7.955-31.431,20.058
			c-0.052,0-0.103,0-0.153,0c-2.782,0-5.465,0.409-8.018,1.124c-0.06-0.797-0.094-1.385-0.095-1.57
			c0-20.645,16.796-37.441,37.441-37.441c1.245,0,2.478,0.061,3.691,0.179c1.645,0.174,3.211-0.844,3.735-2.43
			c5.895-17.848,22.972-29.841,42.495-29.841c24.578,0,44.573,19.196,44.573,42.79c0,1.933,1.539,3.514,3.472,3.564
			c0.432,0.012,0.867,0.007,1.309,0.005l0.568-0.004c16.713,0,30.309,13.596,30.309,30.309
			C188.988,130.248,176.372,143.544,160.446,144.369z"/>
	</g>
</g>
<g>
</g>
<g>
</g>
<g>
</g>
<g>
</g>
<g>
</g>
<g>
</g>
<g>
</g>
<g>
</g>
<g>
</g>
<g>
</g>
<g>
</g>
<g>
</g>
<g>
</g>
<g>
</g>
<g>
</g>
</svg>
